<?xml version="1.0" encoding="UTF-8"?>
<svg width="140px" height="16px" viewBox="0 0 140 16" version="1.1" xmlns="http://www.w3.org/2000/svg" xmlns:xlink="http://www.w3.org/1999/xlink">
    <title>api_logo_pwrdBy_strava_horiz_gray</title>
    <g id="api_logo_pwrdBy_strava_horiz_gray" stroke="none" stroke-width="1" fill="none" fill-rule="evenodd">
        <g transform="translate(1, 0)" fill="#8D8D8D" fill-rule="nonzero">
            <path d="M69.4530759,15.3694118 C68.0683997,15.3821959 66.6901997,15.1789697 65.3681545,14.7670588 C64.1756877,14.3993268 63.0729648,13.7870914 62.1303367,12.9694118 L64.6716472,9.94823529 C65.3986555,10.5211003 66.2250612,10.9550201 67.1094229,11.2282353 C67.9329521,11.481075 68.7892661,11.611101 69.6507334,11.6141176 C69.9727829,11.6373535 70.2956804,11.5824638 70.5919595,11.4541176 C70.762311,11.3720902 70.871645,11.2008093 70.8743274,11.0117647 L70.8743274,11.0117647 C70.8510108,10.7745067 70.6878588,10.5742852 70.4601879,10.5035294 C69.9598724,10.3050504 69.4389774,10.1629957 68.9071648,10.08 C68.11026,9.91686275 67.3478668,9.7254902 66.6199853,9.50588235 C65.9589298,9.31344625 65.3260282,9.03498424 64.737533,8.67764706 C64.2087809,8.35728154 63.7610699,7.91925653 63.4292287,7.39764706 C63.090123,6.82961529 62.9203174,6.17655162 62.9397911,5.51529412 L62.9397911,5.51529412 C62.9343174,4.86668342 63.0691706,4.22455895 63.3351061,3.63294118 C63.6015628,3.04419378 63.9972656,2.52305167 64.4928142,2.10823529 C65.0478032,1.64960253 65.6873572,1.30426161 66.3752665,1.09176471 C67.2135296,0.83471317 68.0869539,0.710852255 68.9636383,0.724705882 C70.1893522,0.703552426 71.4111762,0.868569293 72.5873589,1.21411765 C73.6106974,1.52161921 74.5681177,2.01626027 75.4110373,2.67294118 L73.095621,5.88235294 C72.4454281,5.40929822 71.7198472,5.04970908 70.9496255,4.81882353 C70.2606814,4.60363146 69.544165,4.48950213 68.8224544,4.48 C68.5522739,4.4602492 68.2818959,4.51562491 68.0412367,4.64 C67.884814,4.72342105 67.7871057,4.88625967 67.7871057,5.06352941 L67.7871057,5.06352941 C67.8105488,5.28744857 67.9607258,5.47790682 68.1730084,5.55294118 C68.6563935,5.75342081 69.1619435,5.89559925 69.6789702,5.97647059 C70.5182883,6.12055338 71.3480916,6.31542115 72.1638072,6.56 C72.8301008,6.76407266 73.4639449,7.06196364 74.0462594,7.44470588 C74.5544426,7.77277679 74.9797014,8.21412059 75.2886779,8.73411765 C75.5844873,9.27961127 75.7336707,9.89252794 75.7216419,10.5129412 L75.7216419,10.5129412 C75.7503722,11.2343371 75.6017074,11.9517683 75.2886779,12.6023529 C74.9912584,13.1982825 74.5595036,13.7170053 74.0274349,14.1176471 C73.4349844,14.5493497 72.7681661,14.8683847 72.0602723,15.0588235 C71.2102946,15.285257 70.3324636,15.3898306 69.4530759,15.3694118 L69.4530759,15.3694118 Z" id="Path"></path>
            <polygon id="Path" points="79.6559671 4.90352941 75.4675109 4.90352941 75.4675109 0.884705882 88.5976154 0.884705882 88.5976154 4.90352941 84.4091591 4.90352941 84.4091591 15.1058824 79.6559671 15.1058824"></polygon>
            <path d="M89.2658859,0.884705882 L96.2121347,0.884705882 C97.2732169,0.849886023 98.3326369,0.993043335 99.3464177,1.30823529 C100.085496,1.55113751 100.760854,1.95633075 101.322993,2.49411765 C101.731815,2.91202043 102.051965,3.40822639 102.264219,3.95294118 C102.490329,4.55439501 102.602056,5.19280167 102.593648,5.83529412 L102.593648,5.83529412 C102.623497,6.77073442 102.360232,7.69211504 101.840667,8.47058824 C101.317235,9.20787899 100.609801,9.79521284 99.788794,10.1741176 L103.10191,15.0117647 L97.6804475,15.0117647 L94.997953,10.9458824 L93.9814288,10.9458824 L93.9814288,15.0117647 L89.2282369,15.0117647 L89.2282369,0.884705882 L89.2658859,0.884705882 Z M96.0709508,7.65176471 C96.5445063,7.67779376 97.0136629,7.54894768 97.4074919,7.28470588 C97.7290156,7.04792473 97.9123239,6.6672277 97.8969295,6.26823529 L97.8969295,6.26823529 C97.9244567,5.86421121 97.7388512,5.47517415 97.4074919,5.24235294 C97.0125608,4.99891411 96.5531565,4.88078782 96.0897753,4.90352941 L94.0190778,4.90352941 L94.0190778,7.72705882 L96.0709508,7.72705882 L96.0709508,7.65176471 Z" id="Shape"></path>
            <polygon id="Path" points="130.632774 8.98823529 133.729408 15.1058824 138.284943 15.1058824 130.632774 0 122.971194 15.1058824 127.526728 15.1058824"></polygon>
            <polygon id="Path" points="109.323415 8.98823529 112.420049 15.1058824 116.975583 15.1058824 109.323415 0 101.680659 15.1058824 106.226781 15.1058824"></polygon>
            <polygon id="Path" points="119.978094 7.00235294 116.88146 0.884705882 112.325926 0.884705882 119.978094 16 127.630263 0.884705882 123.074728 0.884705882"></polygon>
            <path d="M0,15.2376471 L0,9.30823529 L2.36247758,9.30823529 C2.89738245,9.28289769 3.42202658,9.46113276 3.83079034,9.80705882 C4.21133952,10.1595249 4.41492724,10.6632917 4.38611375,11.1811765 C4.41039253,11.6909118 4.21102578,12.1858652 3.8402026,12.5364706 C3.42998474,12.886365 2.90084194,13.0649834 2.36247758,13.0352941 L0.997699695,13.0352941 L0.997699695,15.2376471 L0,15.2376471 Z M0.997699695,12.1129412 L2.30600401,12.1129412 C2.57066558,12.12055 2.82879547,12.0300417 3.03074813,11.8588235 C3.23015663,11.6802849 3.34411575,11.4252954 3.34411575,11.1576471 C3.34411575,10.8899988 3.23015663,10.6350093 3.03074813,10.4564706 C2.82142198,10.3018647 2.56610798,10.2222905 2.30600401,10.2305882 L0.997699695,10.2305882 L0.997699695,12.1129412 Z" id="Shape"></path>
            <path d="M8.99812178,15.1905882 C8.69768619,15.3052429 8.37845641,15.3627012 8.05689565,15.36 C7.73465299,15.3606028 7.4152358,15.2999167 7.11566952,15.1811765 C6.44117097,14.9147493 5.927213,14.3522034 5.72265485,13.6564706 C5.57227576,13.191527 5.49914518,12.7050754 5.50617284,12.2164706 C5.45525506,11.4001614 5.72547874,10.5962884 6.25915375,9.97647059 C6.71869665,9.46267348 7.37698371,9.17125968 8.06630791,9.17647059 C8.74985078,9.17300483 9.40165774,9.4645873 9.85463755,9.97647059 C10.3880054,10.6001758 10.6580145,11.4067853 10.6076185,12.2258824 C10.6146461,12.7144871 10.5415155,13.2009388 10.3911364,13.6658824 C10.2729439,14.018778 10.0766943,14.3404817 9.81698851,14.6070588 C9.58868161,14.8576342 9.30950294,15.0565786 8.99812178,15.1905882 Z M6.95566108,13.9011765 C7.21564904,14.2413316 7.6193345,14.4408787 8.04748339,14.4408787 C8.47563227,14.4408787 8.87931774,14.2413316 9.13930569,13.9011765 C9.45884576,13.4036269 9.60753612,12.8155049 9.56285745,12.2258824 C9.59942621,11.6681797 9.44688999,11.1144361 9.12989343,10.6541176 C8.87576874,10.314478 8.47639068,10.1145083 8.05218952,10.1145083 C7.62798836,10.1145083 7.22861029,10.314478 6.9744856,10.6541176 C6.65612622,11.1138003 6.5034566,11.6680281 6.54152158,12.2258824 C6.49335991,12.8145165 6.63877932,13.402773 6.95566108,13.9011765 Z" id="Shape"></path>
            <polygon id="Path" points="12.8665612 15.2376471 11.7182653 9.30823529 12.753614 9.30823529 13.6007175 13.4776471 13.6007175 13.4776471 15.0031445 9.29882353 15.5678801 9.29882353 16.9703071 13.4776471 16.9703071 13.4776471 17.7797615 9.29882353 18.7774612 9.29882353 17.6385776 15.2282353 16.5844044 15.2282353 15.2478633 11.1623529 15.2478633 11.1623529 13.9207344 15.2376471"></polygon>
            <polygon id="Path" points="20.4151947 15.2376471 20.4151947 9.30823529 24.1048011 9.30823529 24.1048011 10.2494118 21.4128944 10.2494118 21.4128944 11.7552941 23.8694946 11.7552941 23.8694946 12.6023529 21.4128944 12.6023529 21.4128944 14.2682353 24.1048011 14.2682353 24.1048011 15.2094118 20.4151947 15.2094118"></polygon>
            <path d="M25.9778411,15.2376471 L25.9778411,9.30823529 L28.3403187,9.30823529 C28.8735978,9.28306215 29.3971129,9.45755798 29.8086314,9.79764706 C30.4635981,10.46678 30.5467704,11.5083592 30.0062889,12.2729412 C29.7649485,12.569107 29.4350966,12.7802011 29.0650628,12.8752941 L30.3451303,15.2376471 L29.2062467,15.2376471 L28.0014773,12.96 L26.9661285,12.96 L26.9661285,15.2376471 L25.9778411,15.2376471 Z M26.9755408,12.0941176 L28.2650206,12.0941176 C28.7848454,12.0941176 29.2062467,11.6727386 29.2062467,11.1529412 C29.2062467,10.6331438 28.7848454,10.2117647 28.2650206,10.2117647 L26.9755408,10.2117647 L26.9755408,12.0941176 Z" id="Shape"></path>
            <polygon id="Path" points="32.0111006 15.2376471 32.0111006 9.30823529 35.700707 9.30823529 35.700707 10.2494118 33.0182125 10.2494118 33.0182125 11.7552941 35.4748127 11.7552941 35.4748127 12.6023529 33.0182125 12.6023529 33.0182125 14.2682353 35.7101193 14.2682353 35.7101193 15.2094118 32.0111006 15.2094118"></polygon>
            <path d="M37.573747,15.2376471 L37.573747,9.30823529 L39.5126728,9.30823529 C39.8348518,9.308312 40.1541427,9.36897407 40.4538989,9.48705882 C40.7552619,9.60875277 41.030157,9.78774479 41.2633534,10.0141176 C41.5280417,10.2784973 41.7277963,10.6006652 41.8469136,10.9552941 C41.998129,11.3810728 42.071459,11.830594 42.0633956,12.2823529 C42.073747,12.7619393 42.0004844,13.2396636 41.8469136,13.6941176 C41.7315518,14.0549646 41.5238981,14.3794063 41.2445289,14.6352941 C41.0016083,14.8466957 40.720453,15.0096294 40.4162499,15.1152941 C40.1126054,15.2156026 39.7948089,15.2664473 39.4750238,15.265887 L37.5925715,15.265887 L37.573747,15.2376471 Z M38.5714467,14.2964706 L39.446787,14.2964706 C39.880133,14.3220607 40.3030279,14.1570373 40.6044951,13.8447059 C40.9283834,13.3775679 41.0752104,12.8103117 41.0186346,12.2447059 C41.0554028,11.7030497 40.9059623,11.1650925 40.5950829,10.72 C40.326604,10.390164 39.9188629,10.2054706 39.4938483,10.2211765 L38.5526222,10.2211765 L38.5526222,14.3058824 L38.5714467,14.2964706 Z" id="Shape"></path>
            <path d="M46.543632,15.2376471 L46.543632,9.30823529 L48.9814077,9.30823529 C49.4450945,9.28565101 49.8987668,9.4481519 50.2426507,9.76 C50.5518272,10.0493117 50.7230061,10.4566959 50.7132637,10.88 C50.7238375,11.3605568 50.4562351,11.8040935 50.0261687,12.0188235 L50.0261687,12.0188235 C50.2779956,12.1331391 50.4978075,12.3076864 50.6662024,12.5270588 C50.849318,12.7776442 50.9422072,13.0828355 50.9297457,13.3929412 C50.9297457,14.6039216 50.2050016,15.2094118 48.7555134,15.2094118 L46.543632,15.2094118 L46.543632,15.2376471 Z M47.4848581,11.7364706 L48.7931624,11.7364706 C49.0249567,11.7512295 49.2546376,11.6846589 49.4426085,11.5482353 C49.6001419,11.4083176 49.6836288,11.2030896 49.6685027,10.9929412 C49.6813654,10.7784907 49.5945339,10.5701061 49.4331962,10.4282353 C49.2439513,10.2863376 49.0104443,10.2162892 48.7743379,10.2305882 L47.4848581,10.2305882 L47.4848581,11.7364706 L47.4848581,11.7364706 Z M47.4848581,14.3152941 L48.9719954,14.3152941 C49.106191,14.3052286 49.238811,14.279969 49.3673104,14.24 C49.4772961,14.2169281 49.5804092,14.1685963 49.6685027,14.0988235 C49.746223,14.0247357 49.8071977,13.9348829 49.8473357,13.8352941 C49.9016017,13.7041804 49.9272723,13.5629995 49.9226338,13.4211765 C49.9589476,13.1470724 49.8296676,12.8774453 49.5932046,12.7341176 C49.2745458,12.6166723 48.9337301,12.5716613 48.5955049,12.6023529 L47.4848581,12.6023529 L47.4848581,14.3435294 L47.4848581,14.3152941 Z" id="Shape"></path>
            <polygon id="Path" points="53.6687138 15.2376471 53.6687138 12.7341176 51.729788 9.30823529 52.7933735 9.30823529 54.1487391 11.8305882 54.1487391 11.8305882 55.513517 9.30823529 56.5771025 9.30823529 54.6381767 12.7435294 54.6381767 15.2376471 53.6969506 15.2376471"></polygon>
        </g>
    </g>
</svg>